<?xml version="1.0" standalone="no"?>
<!DOCTYPE svg PUBLIC "-//W3C//DTD SVG 20010904//EN"
 "http://www.w3.org/TR/2001/REC-SVG-20010904/DTD/svg10.dtd">
<svg version="1.0" xmlns="http://www.w3.org/2000/svg"
 width="1024.000000pt" height="1024.000000pt" viewBox="0 0 1024.000000 1024.000000"
 preserveAspectRatio="xMidYMid meet">

<g transform="translate(0.000000,1024.000000) scale(0.100000,-0.100000)"
fill="#000000" stroke="none">
<path d="M5218 9255 c-77 -16 -155 -52 -213 -99 l-40 -33 -330 -7 c-181 -4
-348 -10 -370 -14 -47 -9 -64 -35 -72 -118 -3 -30 -9 -57 -13 -59 -4 -2 -41 3
-81 11 -113 24 -335 14 -457 -20 -116 -32 -223 -81 -310 -142 -56 -39 -69 -44
-85 -35 -68 43 -256 75 -392 68 -292 -16 -544 -154 -686 -375 l-47 -74 15 -52
c16 -53 51 -127 76 -160 13 -18 11 -27 -19 -90 -58 -123 -64 -278 -15 -408 12
-31 31 -68 43 -83 11 -14 18 -28 15 -31 -3 -3 -81 -25 -173 -49 -93 -24 -177
-46 -186 -50 -17 -7 -18 -87 -18 -1479 0 -1468 2 -1579 36 -1806 86 -579 400
-1142 877 -1571 384 -345 834 -608 1852 -1081 154 -72 318 -148 365 -170 47
-22 95 -44 108 -49 19 -7 56 6 200 72 504 232 1184 566 1412 694 193 108 461
286 603 399 239 191 468 438 619 666 248 375 381 750 439 1235 14 110 23 2424
12 2852 l-6 232 -86 20 c-47 11 -171 36 -276 57 -104 20 -194 40 -199 45 -5 4
0 91 12 206 41 377 39 487 -12 635 -91 261 -343 415 -716 438 -74 4 -205 17
-290 29 -187 25 -581 61 -926 86 l-91 7 -25 51 c-32 66 -104 146 -165 185
-104 66 -259 93 -385 67z m215 -70 c129 -33 226 -113 282 -230 l34 -72 138 -7
c232 -11 228 -10 264 -72 16 -30 34 -56 40 -59 5 -4 24 17 41 46 l33 52 85 -6
c137 -9 492 -47 530 -57 19 -6 72 -10 117 -10 264 0 503 -79 633 -210 112
-112 162 -248 161 -445 0 -99 -21 -357 -41 -491 -5 -38 -10 -83 -10 -100 l0
-31 183 -37 c100 -20 229 -47 287 -59 l105 -22 0 -1455 c0 -1556 1 -1536 -51
-1817 -96 -527 -370 -1023 -781 -1413 -257 -243 -520 -427 -931 -649 -274
-148 -1397 -691 -1430 -691 -19 0 -713 324 -1017 475 -907 449 -1382 810
-1729 1314 -251 365 -384 729 -430 1174 -22 209 -26 3056 -4 3068 8 4 88 26
179 48 90 23 181 46 202 51 l37 11 -39 47 c-82 98 -118 213 -107 339 6 78 33
159 69 213 l24 34 -44 67 c-24 36 -50 87 -58 112 -13 44 -13 47 16 92 190 299
642 430 988 286 l73 -31 67 50 c82 63 179 110 296 146 83 26 104 28 260 28
147 1 180 -2 244 -21 41 -12 77 -20 81 -18 4 2 10 33 14 67 3 35 11 79 16 99
l10 36 182 6 c100 4 263 7 363 7 l181 0 35 36 c37 39 128 89 187 103 59 14
153 12 215 -4z"/>
<path d="M5280 8971 c-76 -40 -102 -126 -57 -192 29 -44 71 -64 128 -62 89 2
149 58 149 140 0 99 -125 165 -220 114z"/>
<path d="M4495 8821 c-3 -2 -5 -49 -5 -103 l0 -98 -80 0 -80 0 0 -90 0 -90 79
0 79 0 4 -212 c5 -281 20 -322 143 -390 58 -32 63 -33 175 -33 99 0 122 4 168
24 28 13 52 26 52 30 0 8 -53 132 -63 148 -6 9 -15 10 -35 2 -36 -14 -106 -13
-131 2 -43 27 -51 69 -51 254 l0 175 115 0 115 0 0 94 0 94 -115 -5 -115 -6 0
107 0 107 -125 -2 c-69 -2 -128 -5 -130 -8z"/>
<path d="M5210 8636 c0 -3 0 -187 0 -408 l0 -403 135 -3 135 -3 0 406 0 405
-119 0 c-66 0 -126 3 -135 6 -9 3 -16 3 -16 0z"/>
<path d="M5646 8617 c5 -17 162 -411 308 -774 18 -45 26 -54 51 -58 57 -10
259 -23 268 -18 9 6 397 779 397 792 0 11 -109 25 -203 26 l-69 0 -119 -253
c-65 -140 -119 -258 -119 -264 0 -5 -5 -8 -12 -6 -6 2 -58 125 -115 274 -57
148 -109 274 -116 280 -7 7 -67 14 -145 17 l-133 6 7 -22z"/>
<path d="M3720 8597 c-131 -39 -239 -127 -286 -233 -74 -167 -43 -358 78 -481
164 -166 470 -177 663 -23 40 32 105 115 105 134 0 6 -43 35 -96 65 l-96 54
-29 -37 c-83 -99 -217 -122 -312 -52 -62 46 -96 174 -66 253 15 42 79 102 119
113 88 25 188 2 239 -54 14 -14 28 -26 33 -26 6 0 61 40 187 137 3 2 -14 23
-38 46 -112 115 -320 157 -501 104z"/>
<path d="M6978 8530 c-71 -9 -194 -45 -203 -60 -5 -9 56 -141 77 -167 7 -8 24
-6 66 10 82 30 230 30 288 0 49 -26 71 -57 80 -113 6 -38 5 -42 -12 -37 -65
19 -150 29 -247 29 -172 1 -272 -43 -324 -142 -29 -55 -31 -147 -4 -205 67
-148 346 -223 505 -137 31 16 57 27 60 25 3 -3 3 -18 -1 -33 -4 -21 0 -31 13
-38 15 -7 136 -28 209 -36 11 -1 17 45 41 299 27 294 11 388 -80 479 -100 100
-279 148 -468 126z m240 -512 c45 -10 52 -14 52 -35 0 -38 -25 -87 -54 -106
-39 -26 -116 -41 -171 -32 -36 5 -58 16 -82 40 -55 55 -38 111 42 141 43 16
120 13 213 -8z"/>
<path d="M2810 8500 c-114 -15 -228 -59 -317 -123 -24 -17 -43 -35 -43 -41 0
-20 90 -146 104 -146 7 0 21 9 30 19 9 10 47 34 84 52 60 30 76 34 150 34 l83
0 35 -37 c19 -21 34 -48 34 -62 0 -22 -5 -24 -67 -31 -151 -16 -304 -71 -378
-136 -21 -19 -49 -56 -61 -84 -71 -152 25 -309 203 -333 115 -15 237 18 315
87 20 17 38 31 41 31 2 0 8 -16 11 -35 6 -30 10 -34 29 -30 12 2 61 11 110 19
48 8 92 18 98 22 6 3 8 21 5 43 -4 20 -13 125 -21 233 -21 268 -33 325 -86
399 -64 90 -210 139 -359 119z m180 -536 c0 -53 -3 -59 -43 -99 -48 -48 -108
-70 -170 -62 -47 7 -87 41 -87 77 0 60 63 102 187 124 120 22 113 24 113 -40z"/>
<path d="M4550 7533 c-592 -32 -1066 -86 -1650 -189 -301 -53 -698 -138 -713
-153 -4 -4 -6 -617 -4 -1362 4 -1479 2 -1428 63 -1694 149 -648 540 -1171
1201 -1609 217 -143 380 -234 708 -396 385 -190 942 -450 964 -450 17 0 203
85 666 303 552 260 931 473 1200 676 592 446 928 976 1041 1641 17 97 18 217
21 1497 l4 1391 -57 17 c-94 27 -464 101 -745 149 -575 98 -1017 148 -1569
176 -173 9 -985 11 -1130 3z m985 -253 c132 -5 269 -12 305 -15 36 -2 106 -7
155 -11 506 -33 1270 -143 1716 -245 l89 -21 0 -1244 c0 -806 -4 -1279 -11
-1342 -52 -481 -274 -912 -665 -1292 -330 -320 -668 -532 -1434 -895 -284
-135 -567 -265 -576 -265 -16 0 -648 297 -888 417 -683 342 -1051 617 -1371
1028 -207 265 -343 589 -402 955 -17 107 -18 200 -18 1375 l0 1260 70 18 c193
49 769 150 1065 186 341 43 724 74 1165 94 155 8 584 6 800 -3z"/>
<path d="M2830 6343 c99 -76 202 -214 219 -293 8 -35 11 -369 11 -1053 0
-1086 1 -1067 -55 -1177 -14 -27 -38 -65 -55 -83 -16 -19 -30 -36 -30 -38 0
-2 390 -4 868 -4 683 0 882 -3 940 -14 40 -7 75 -11 77 -9 5 5 174 802 171
806 -4 3 -387 -226 -407 -244 -13 -12 -93 -14 -452 -14 l-437 0 0 53 c0 28 -2
432 -4 897 -2 484 0 871 6 905 11 76 53 166 107 230 22 27 41 53 41 57 0 5
-233 8 -517 8 l-518 0 35 -27z"/>
<path d="M6463 6316 c29 -30 66 -78 84 -107 62 -103 63 -122 61 -670 l-3 -494
-350 0 -350 0 0 370 c0 358 1 372 23 435 12 36 40 89 62 118 l40 52 -471 0
-470 0 44 -57 c24 -32 58 -83 75 -113 66 -117 62 1 62 -1893 0 -1371 3 -1718
13 -1714 6 2 136 98 287 212 151 114 287 217 303 228 l27 21 0 933 0 933 355
0 355 0 0 -322 c0 -348 -5 -388 -54 -471 -13 -24 -32 -49 -40 -57 -9 -7 -16
-15 -16 -19 0 -3 184 -6 410 -6 225 0 410 1 410 2 0 1 -20 25 -45 54 -25 29
-55 78 -67 108 l-23 56 -3 1045 c-2 731 1 1060 8 1097 17 80 73 181 134 243
31 30 55 58 56 63 0 4 -218 7 -484 7 l-484 0 51 -54z"/>
</g>
</svg>
